<mxfile host="app.diagrams.net" modified="2022-01-06T07:17:27.794Z" agent="5.0 (Macintosh; Intel Mac OS X 10_15_7) AppleWebKit/537.36 (KHTML, like Gecko) Chrome/96.0.4664.110 Safari/537.36" etag="ynAHMOFZsTfugLGT0ufR" version="16.2.1" type="github">
  <diagram id="OsOptn1CzUSsEFbb-gN_" name="第 1 页">
    <mxGraphModel dx="1395" dy="722" grid="1" gridSize="10" guides="1" tooltips="1" connect="1" arrows="1" fold="1" page="1" pageScale="1" pageWidth="827" pageHeight="1169" math="0" shadow="0">
      <root>
        <mxCell id="0" />
        <mxCell id="1" parent="0" />
        <mxCell id="yytsNh5l904u42-Xs_2a-2" style="edgeStyle=orthogonalEdgeStyle;rounded=0;orthogonalLoop=1;jettySize=auto;html=1;exitX=0.5;exitY=1;exitDx=0;exitDy=0;entryX=0.5;entryY=0.014;entryDx=0;entryDy=0;entryPerimeter=0;" parent="1" source="yytsNh5l904u42-Xs_2a-1" edge="1" target="WMxrbahEFDX2T2WnkjIR-1">
          <mxGeometry relative="1" as="geometry">
            <mxPoint x="370" y="110" as="targetPoint" />
          </mxGeometry>
        </mxCell>
        <mxCell id="yytsNh5l904u42-Xs_2a-1" value="didReceiveCall（call2）" style="rounded=0;whiteSpace=wrap;html=1;" parent="1" vertex="1">
          <mxGeometry x="300" y="30" width="140" height="30" as="geometry" />
        </mxCell>
        <mxCell id="WMxrbahEFDX2T2WnkjIR-3" style="edgeStyle=orthogonalEdgeStyle;rounded=0;orthogonalLoop=1;jettySize=auto;html=1;entryX=0.514;entryY=0;entryDx=0;entryDy=0;entryPerimeter=0;" edge="1" parent="1" source="WMxrbahEFDX2T2WnkjIR-1" target="WMxrbahEFDX2T2WnkjIR-5">
          <mxGeometry relative="1" as="geometry" />
        </mxCell>
        <mxCell id="WMxrbahEFDX2T2WnkjIR-4" value="当有有call1" style="edgeLabel;html=1;align=center;verticalAlign=middle;resizable=0;points=[];" vertex="1" connectable="0" parent="WMxrbahEFDX2T2WnkjIR-3">
          <mxGeometry x="-0.2519" relative="1" as="geometry">
            <mxPoint as="offset" />
          </mxGeometry>
        </mxCell>
        <mxCell id="WMxrbahEFDX2T2WnkjIR-1" value="当前是否有call" style="html=1;whiteSpace=wrap;aspect=fixed;shape=isoRectangle;" vertex="1" parent="1">
          <mxGeometry x="311.66" y="90" width="116.67" height="70" as="geometry" />
        </mxCell>
        <mxCell id="WMxrbahEFDX2T2WnkjIR-2" value="关联两个ControllerController" style="rounded=0;whiteSpace=wrap;html=1;" vertex="1" parent="1">
          <mxGeometry x="286.65999999999997" y="350" width="160" height="30" as="geometry" />
        </mxCell>
        <mxCell id="WMxrbahEFDX2T2WnkjIR-5" value="call1可以直接结束" style="html=1;whiteSpace=wrap;aspect=fixed;shape=isoRectangle;" vertex="1" parent="1">
          <mxGeometry x="311.66" y="210" width="110" height="66" as="geometry" />
        </mxCell>
        <mxCell id="WMxrbahEFDX2T2WnkjIR-7" value="结束call1" style="rounded=0;whiteSpace=wrap;html=1;" vertex="1" parent="1">
          <mxGeometry x="460" y="220" width="90" height="30" as="geometry" />
        </mxCell>
        <mxCell id="WMxrbahEFDX2T2WnkjIR-9" value="" style="endArrow=classic;html=1;rounded=0;exitX=1.003;exitY=0.49;exitDx=0;exitDy=0;exitPerimeter=0;entryX=-0.022;entryY=0.711;entryDx=0;entryDy=0;entryPerimeter=0;" edge="1" parent="1" source="WMxrbahEFDX2T2WnkjIR-5" target="WMxrbahEFDX2T2WnkjIR-7">
          <mxGeometry width="50" height="50" relative="1" as="geometry">
            <mxPoint x="430" y="250" as="sourcePoint" />
            <mxPoint x="480" y="200" as="targetPoint" />
          </mxGeometry>
        </mxCell>
        <mxCell id="WMxrbahEFDX2T2WnkjIR-16" value="是" style="edgeLabel;html=1;align=center;verticalAlign=middle;resizable=0;points=[];" vertex="1" connectable="0" parent="WMxrbahEFDX2T2WnkjIR-9">
          <mxGeometry x="-0.3714" y="3" relative="1" as="geometry">
            <mxPoint as="offset" />
          </mxGeometry>
        </mxCell>
        <mxCell id="WMxrbahEFDX2T2WnkjIR-10" value="显示call2" style="rounded=0;whiteSpace=wrap;html=1;" vertex="1" parent="1">
          <mxGeometry x="300" y="480" width="160" height="30" as="geometry" />
        </mxCell>
        <mxCell id="WMxrbahEFDX2T2WnkjIR-11" value="" style="endArrow=classic;html=1;rounded=0;exitX=0.506;exitY=0.977;exitDx=0;exitDy=0;exitPerimeter=0;entryX=0.5;entryY=0;entryDx=0;entryDy=0;" edge="1" parent="1" source="WMxrbahEFDX2T2WnkjIR-5" target="WMxrbahEFDX2T2WnkjIR-2">
          <mxGeometry width="50" height="50" relative="1" as="geometry">
            <mxPoint x="431.99000000000024" y="252.34000000000003" as="sourcePoint" />
            <mxPoint x="468.02" y="251.32999999999993" as="targetPoint" />
          </mxGeometry>
        </mxCell>
        <mxCell id="WMxrbahEFDX2T2WnkjIR-17" value="否" style="edgeLabel;html=1;align=center;verticalAlign=middle;resizable=0;points=[];" vertex="1" connectable="0" parent="WMxrbahEFDX2T2WnkjIR-11">
          <mxGeometry x="-0.1908" y="3" relative="1" as="geometry">
            <mxPoint as="offset" />
          </mxGeometry>
        </mxCell>
        <mxCell id="WMxrbahEFDX2T2WnkjIR-12" value="" style="endArrow=classic;html=1;rounded=0;exitX=0.5;exitY=1;exitDx=0;exitDy=0;entryX=0.406;entryY=-0.106;entryDx=0;entryDy=0;entryPerimeter=0;" edge="1" parent="1" source="WMxrbahEFDX2T2WnkjIR-2" target="WMxrbahEFDX2T2WnkjIR-10">
          <mxGeometry width="50" height="50" relative="1" as="geometry">
            <mxPoint x="441.99000000000024" y="262.34000000000003" as="sourcePoint" />
            <mxPoint x="478.02" y="261.3299999999999" as="targetPoint" />
          </mxGeometry>
        </mxCell>
        <mxCell id="WMxrbahEFDX2T2WnkjIR-13" value="" style="endArrow=classic;html=1;rounded=0;entryX=1;entryY=0.25;entryDx=0;entryDy=0;exitX=0.5;exitY=1;exitDx=0;exitDy=0;" edge="1" parent="1" source="WMxrbahEFDX2T2WnkjIR-7" target="WMxrbahEFDX2T2WnkjIR-10">
          <mxGeometry width="50" height="50" relative="1" as="geometry">
            <mxPoint x="500" y="260" as="sourcePoint" />
            <mxPoint x="488.02" y="271.3299999999999" as="targetPoint" />
            <Array as="points">
              <mxPoint x="505" y="487" />
            </Array>
          </mxGeometry>
        </mxCell>
        <mxCell id="WMxrbahEFDX2T2WnkjIR-15" value="" style="endArrow=classic;html=1;rounded=0;entryX=1;entryY=0.75;entryDx=0;entryDy=0;" edge="1" parent="1" target="WMxrbahEFDX2T2WnkjIR-10">
          <mxGeometry width="50" height="50" relative="1" as="geometry">
            <mxPoint x="432" y="120" as="sourcePoint" />
            <mxPoint x="468.02" y="251.32999999999993" as="targetPoint" />
            <Array as="points">
              <mxPoint x="580" y="120" />
              <mxPoint x="580" y="502" />
            </Array>
          </mxGeometry>
        </mxCell>
      </root>
    </mxGraphModel>
  </diagram>
</mxfile>
